<svg width="20" height="20" viewBox="0 0 20 20" fill="none" xmlns="http://www.w3.org/2000/svg">
<path d="M19.9888 6.05818L19.9828 6.00571C19.9717 5.94005 19.9518 5.87664 19.9237 5.81766L16.9765 0.519481C16.9765 0.519481 16.6007 0 16.5114 0H3.95236L0.175356 5.63792L0.130702 5.68987L0.124655 5.71429C0.0927485 5.77153 0.0665444 5.8325 0.0465097 5.8961L0.0311598 5.94649C-0.0123588 6.10777 -0.0102471 6.28011 0.0372068 6.44L0.0548825 6.49662C0.0786051 6.56364 0.107909 6.62494 0.14233 6.67948L9.27367 19.5974L9.29227 19.627C9.33925 19.6945 9.39647 19.7543 9.46624 19.8088L9.51927 19.8457C9.57136 19.8821 9.62578 19.9112 9.70486 19.9434L9.75649 19.9626C9.8458 19.9881 9.92348 20 9.9993 20C10.076 20 10.1509 19.9886 10.2519 19.9595L10.3137 19.9351C10.3742 19.9112 10.4286 19.8816 10.4942 19.8364L10.5352 19.8078C10.6054 19.7522 10.6617 19.6919 10.6928 19.6447L19.8358 6.71325C19.9167 6.59279 19.9694 6.45175 19.9893 6.30286L19.9963 6.23584L20 6.18286L19.9888 6.05818ZM15.0862 5.71429L16.3877 3.08416L17.6882 5.71429H15.0862ZM14.3056 7.27273H17.3933L12.2469 14.5532L14.3056 7.27273ZM13.5419 4.92571L11.6622 2.07792H14.9508L13.5419 4.92571ZM7.52099 7.27273H12.479L9.9993 16.04L7.52099 7.27273ZM8.01265 5.71429L9.9993 2.70338L11.9859 5.71429H8.01265ZM6.61348 4.68987L5.75203 2.07792H8.33686L6.61348 4.68987ZM7.75263 14.5538L2.60576 7.27273H5.69388L7.75263 14.5538ZM4.26169 3.10234L5.12361 5.71429H2.53831L4.26169 3.10234Z" fill="white"/>
</svg>
